<svg xmlns="http://www.w3.org/2000/svg" version="1.1" xmlns:xlink="http://www.w3.org/1999/xlink" xmlns:svgjs="http://svgjs.dev/svgjs" width="1500" height="1687" viewBox="0 0 1500 1687"><g transform="matrix(1,0,0,1,0.00011015625000254659,0)"><svg viewBox="0 0 320 360" data-background-color="#ffffff" preserveAspectRatio="xMidYMid meet" height="1687" width="1500" xmlns="http://www.w3.org/2000/svg" xmlns:xlink="http://www.w3.org/1999/xlink"><g id="tight-bounds" transform="matrix(1,0,0,1,0.000023499999997511622,0)"><svg viewBox="0 0 320 360" height="360" width="320"><g><svg></svg></g><g><svg viewBox="0 0 320 360" height="360" width="320"><g><path transform="translate(-74.99272,-51.79039) scale(4.65793,4.65793)" d="M20.6 59.9l0.8 1-0.4-1.3c-0.1-0.6-0.8 0.1-0.4 0.3M21.5 59.3c0.3 0.5 0.6 1 0.6 1.5 0 0.7 0.6 1 1.1 1.2-0.7-0.8-1.1-3-1.7-2.7M59.9 16.9c1.7 0 3.3-0.2 5.1 0.2 4.4 1.1 8.1 3.3 10.6 6.4l7 11.2c0.3 2.8 0.9 5.9 0.8 9.3 0.7 0 0.6-1 1.4-1.2-0.8 2-1.2 4.5-1.4 7.4-0.5-1.6 0-4 0.1-5.3-0.7 1.1-1.1 0.3-1.1-0.2 0.1-0.8-0.3-0.7-0.6-1-1.1-1-1.8-2.1-2.6-3.8 0.5-1.3 0.6-3.2-1-4.2-0.5-0.3-1.1-0.8-1.4-1.6-0.4-1.1-1.1-2.4-0.9-4.1 0.1-0.5-1.5 1.1-2.4 0.4-3.9-2.7-7.8-5.8-12.5-8.4-2.5 0-4.3-0.9-5.2-2-0.8-1-0.2-2.3 1-2.4 0.7 0 1.5-0.2 2.1 0.2 0.1-0.4 0.5-0.9 1-0.9M50 14.6l0.2 0.1c1 0.2 1.5 1.6 2.6 1.1 0 0.7 0.1 1.4-0.1 1.9-0.3 0.8-1.2 0.8-1.9 0.8-6.7-0.4-10.6 2.4-14.7 4.8-1.1 0.7-2.3 1.2-3.2 2.1-4.3 4-9 7.7-10.1 15.1l-0.9 8.2c-0.1 0.9-1.1 1.8-0.9 2.9l0.7 4.9c-0.7-0.7-1.1 0.2-0.9 0.6 0.1 0.3 0.5 1.3 1.1 0.4 0.8 1.5 1.6 4.4 2.7 5.7 3.4 4 7.8 7.6 11.4 11.2 0.9-0.2 1.6-0.2 1.8-0.8 0.3 0.6-0.3 1.2-0.8 1.3 1.6 1 3.4 1.9 5.8 2.1 3.1 0.2 6 0.7 8.7 1.4 1.4-0.4 2.8-0.6 4.3-0.7 0.5 0 0.8-0.8 1.4-1l0.1-1c0.6 0.9 0.5-0.3 0.1-0.9 0.7 0.6 0.9 1.1 1.2 1.5 0-0.3 0.8-1.4 0.8-0.1l0.2-1.3c0.3-0.2 0.4 1.1 0.7 0.2 0.3-0.9 0.9-0.2 1.5-0.5-0.2 0.4-0.1 1.2 0.6 0.7l0.8-0.7c0.5 1.2 1.3 0.7 1.7 0.5 4.4-2.8 8.8-6.1 13-9.4l-0.1 1.3 0.5-1.6c0.5 0.5 0.9 0.1 1.1-0.2 0.6-1 1.4-2 2.7-2.9-1.6 4.3-3.5 7.7-5.9 10.5l-1 1.2c0 0.7-0.2 1.6-1 1.7-0.4 0.1-1.2-0.2-1.8 0.4-0.3 0.4 0.7 1.2-0.1 0.6-0.7-0.5-1.4 0-2.2 0.2-0.6 0.2 0.4 0.8 0.6 1.2 0.2 0.4 0.4 0.8 0.3 1.3l-1.1-1.2c-1.3 0.7-2.1 2-3.2 3-0.5 0.4-0.3 1.1-0.3 1.7-0.7 0-1.5-0.2-1.9 0.2-0.3 0.4-0.2 1-0.2 1.6-1-0.1-1.1-1.6-2-1.3-0.9 0.2-1.9 0.3-2.7 0.8 0.6 1.2-1 0.5-0.8 0.7-1.5-0.9-2.8-1.6-4.4-1-3.4-1.1-7.6-0.6-10.7-0.2 0-0.5 0.1-1-0.1-1.1-0.2 0.5-0.8 0.3-0.7 0.3-1.9-1.3-3.8-2.1-5.8-3.2-1.8 0.2-3.5-0.7-4-1.2-1.4-1.3-3-0.6-4.3-0.9-2.8-0.7-3.8-3.6-4.1-5.6-0.2-1-1-1.4-1.3-1.3-1.3-4.2-3.3-8-4.9-11.9-0.4-1-0.3-2-0.3-3.1 0.5 0.2 1 0.1 0.9-0.6-0.5-3.3-1.7-5.8-3-8.2 0.7-3.4 0.8-7.4 2.4-10.4 1.4-2.7 4-4.1 5.8-6.4 0.6-0.8 0.6-1.9 1.2-2.6 2-2 4-4.1 6.2-5.9 1-0.8 2.2 0 3.7-0.3 0.5-1.8 2.5-3.4 4.4-2.9 0.8 0.2 2.4-1.9 2.9-2.1 0.8-0.3 0.4 0.8 0.4 1.5 1.9-1.5 4.5-2.3 6.9-3.2" fill="#ff5349" fill-rule="nonzero" stroke="none" stroke-width="1" stroke-linecap="butt" stroke-linejoin="miter" stroke-miterlimit="10" stroke-dasharray="" stroke-dashoffset="0" font-family="none" font-weight="none" font-size="none" text-anchor="none" style="mix-blend-mode: normal" data-fill-palette-color="tertiary"></path></g><g transform="matrix(1,0,0,1,120.62242602532464,90)"><svg viewBox="0 0 78.75514794935071 180" height="180" width="78.75514794935071"><g><svg viewBox="0 0 78.75514794935071 180" height="180" width="78.75514794935071"><g><svg viewBox="0 0 164.2816901408451 375.47646084507045" height="180" width="78.75514794935071"><g transform="matrix(1,0,0,1,0,195.47646084507045)"><svg viewBox="0 0 164.2816901408451 180" height="180" width="164.2816901408451"><g id="textblocktransform"><svg viewBox="0 0 164.2816901408451 180" height="180" width="164.2816901408451" id="textblock"><g><svg viewBox="0 0 164.2816901408451 180" height="180" width="164.2816901408451"><g transform="matrix(1,0,0,1,0,0)"><svg width="164.2816901408451" viewBox="2 -35.5 32.4 35.5" height="180" data-palette-color="#ff5349"><path d="M2-35L9.7-35 19.2-35.5Q23.6-35.5 26.4-33.65 29.2-31.8 29.2-28.6L29.2-28.6Q29.2-24.15 26.8-21.35 24.4-18.55 20.9-17.1L20.9-17.1 29-4.9Q29.5-4.1 30.93-2.75 32.35-1.4 33.5-1.4L33.5-1.4 34.4-1.4 34.4 0 27 0Q27.15 0 26.05-1.5 24.95-3 24.8-3.3L24.8-3.3 16.5-16.1Q16-16 14.5-16 13-16 12.1-16.1L12.1-16.1 11.7-18.1Q12.4-18 14.7-18 17-18 19.3-18.6 21.6-19.2 23.35-20.88 25.1-22.55 25.1-25.2L25.1-25.2Q25.1-32.6 15.6-32.6L15.6-32.6 10.4-32.4 10.4-3.7Q10.4-2.95 10.5-2.55 10.6-2.15 11.15-1.78 11.7-1.4 12.8-1.4L12.8-1.4 14.7-1.4 14.7 0 2 0 2-1.4 3.6-1.4Q4.7-1.4 5.25-1.78 5.8-2.15 5.9-2.55 6-2.95 6-3.7L6-3.7 6-31.3Q6-32.45 5.53-32.98 5.05-33.5 3.6-33.5L3.6-33.5 2-33.5 2-35Z" opacity="1" transform="matrix(1,0,0,1,0,0)" fill="#ff5349" class="wordmark-text-0" data-fill-palette-color="primary" id="text-0"></path></svg></g></svg></g></svg></g></svg></g><g transform="matrix(1,0,0,1,31.377802816901415,0)"><svg viewBox="0 0 101.52608450704226 169.21014084507044" height="169.21014084507044" width="101.52608450704226"><g><svg xmlns="http://www.w3.org/2000/svg" xmlns:xlink="http://www.w3.org/1999/xlink" version="1.1" x="0" y="0" viewBox="14 2 36 60" style="enable-background:new 0 0 64 64;" xml:space="preserve" height="169.21014084507044" width="101.52608450704226" class="icon-icon-0" data-fill-palette-color="accent" id="icon-0"><path d="M45 36h-3v-4H14v25c0 2.8 2.2 5 5 5h18c2.8 0 5-2.2 5-5v-3h3c2.8 0 5-2.2 5-5v-8C50 38.2 47.8 36 45 36zM23.9 54.5l-1.7 1L17.8 48l4.3-7.5 1.7 1L20.2 48 23.9 54.5zM27 55.3L25 54.7l4-14 1.9 0.5L27 55.3zM33.9 55.5l-1.7-1 3.7-6.5-3.7-6.5 1.7-1 4.3 7.5L33.9 55.5zM48 49c0 1.7-1.3 3-3 3h-3V38h3c1.7 0 3 1.3 3 3V49z" fill="#ff5349" data-fill-palette-color="accent"></path><g fill="#ff5349" data-fill-palette-color="accent"><path d="M38 30h-2v-2c0-1.1-0.9-2-2-2H20c-2.2 0-4-1.8-4-4s1.8-4 4-4h14c1.1 0 2-0.9 2-2s-0.9-2-2-2H20c-2.2 0-4-1.8-4-4s1.8-4 4-4h14c1.1 0 2-0.9 2-2V2h2v2c0 2.2-1.8 4-4 4H20c-1.1 0-2 0.9-2 2s0.9 2 2 2h14c2.2 0 4 1.8 4 4s-1.8 4-4 4H20c-1.1 0-2 0.9-2 2s0.9 2 2 2h14c2.2 0 4 1.8 4 4V30z" fill="#ff5349" data-fill-palette-color="accent"></path></g></svg></g></svg></g><g></g></svg></g></svg></g></svg></g></svg></g><defs></defs></svg><rect width="320" height="360" fill="none" stroke="none" visibility="hidden"></rect></g></svg></g></svg>